<?xml version="1.0" encoding="UTF-8" standalone="no" ?>
<!DOCTYPE svg PUBLIC "-//W3C//DTD SVG 1.1//EN" "http://www.w3.org/Graphics/SVG/1.1/DTD/svg11.dtd">
<svg xmlns="http://www.w3.org/2000/svg" xmlns:xlink="http://www.w3.org/1999/xlink" version="1.1" width="1080" height="1080" viewBox="0 0 1080 1080" xml:space="preserve">
<desc>Created with Fabric.js 5.2.4</desc>
<defs>
</defs>
<g transform="matrix(1 0 0 1 540 540)" id="a14b3f9d-01d3-4bf3-9a1e-ab46e4af76cd"  >
<rect style="stroke: none; stroke-width: 1; stroke-dasharray: none; stroke-linecap: butt; stroke-dashoffset: 0; stroke-linejoin: miter; stroke-miterlimit: 4; fill: rgb(255,255,255); fill-rule: nonzero; opacity: 1; visibility: hidden;" vector-effect="non-scaling-stroke"  x="-540" y="-540" rx="0" ry="0" width="1080" height="1080" />
</g>
<g transform="matrix(1 0 0 1 540 540)" id="0f5e8c35-5b82-471b-ae1b-bafbbef620fb"  >
</g>
<g transform="matrix(1 0 0 1 540 540)"  >
<g style="" vector-effect="non-scaling-stroke"   >
		<g transform="matrix(1 0 0 1 -343.19 215.41)"  >
<path style="stroke: none; stroke-width: 1; stroke-dasharray: none; stroke-linecap: butt; stroke-dashoffset: 0; stroke-linejoin: miter; stroke-miterlimit: 4; fill: rgb(160,160,164); fill-rule: nonzero; opacity: 1;" vector-effect="non-scaling-stroke"  transform=" translate(-656.8, -1215.41)" d="M 645.14 1195.31 L 645.14 1214.6299999999999 L 670.5699999999999 1214.6299999999999 L 670.5699999999999 1219.1299999999999 L 645.14 1219.1299999999999 L 645.14 1239.9999999999998 L 639.9399999999999 1239.9999999999998 L 639.9399999999999 1190.8199999999997 L 673.67 1190.8199999999997 L 673.67 1195.3199999999997 L 645.14 1195.3199999999997 Z" stroke-linecap="round" />
</g>
		<g transform="matrix(1 0 0 1 -267.92 215.41)"  >
<path style="stroke: none; stroke-width: 1; stroke-dasharray: none; stroke-linecap: butt; stroke-dashoffset: 0; stroke-linejoin: miter; stroke-miterlimit: 4; fill: rgb(160,160,164); fill-rule: nonzero; opacity: 1;" vector-effect="non-scaling-stroke"  transform=" translate(-732.07, -1215.41)" d="M 749.46 1235.5 L 749.46 1240 L 714.6800000000001 1240 L 714.6800000000001 1190.82 L 748.4100000000001 1190.82 L 748.4100000000001 1195.32 L 719.8800000000001 1195.32 L 719.8800000000001 1212.81 L 745.3100000000001 1212.81 L 745.3100000000001 1217.24 L 719.8800000000001 1217.24 L 719.8800000000001 1235.51 L 749.4600000000002 1235.51 Z" stroke-linecap="round" />
</g>
		<g transform="matrix(1 0 0 1 -189.88 215.41)"  >
<path style="stroke: none; stroke-width: 1; stroke-dasharray: none; stroke-linecap: butt; stroke-dashoffset: 0; stroke-linejoin: miter; stroke-miterlimit: 4; fill: rgb(160,160,164); fill-rule: nonzero; opacity: 1;" vector-effect="non-scaling-stroke"  transform=" translate(-810.11, -1215.41)" d="M 824.06 1240 L 812.8199999999999 1224.19 C 811.56 1224.3300000000002 810.29 1224.4 808.89 1224.4 L 795.68 1224.4 L 795.68 1240 L 790.4799999999999 1240 L 790.4799999999999 1190.82 L 808.8899999999999 1190.82 C 821.3999999999999 1190.82 828.9799999999999 1197.1399999999999 828.9799999999999 1207.6799999999998 C 828.9799999999999 1215.4099999999999 824.8999999999999 1220.82 817.7399999999999 1223.1399999999999 L 829.7499999999999 1239.9999999999998 L 824.0599999999998 1239.9999999999998 Z M 823.78 1207.68 C 823.78 1199.8100000000002 818.5799999999999 1195.3100000000002 808.74 1195.3100000000002 L 795.67 1195.3100000000002 L 795.67 1219.9700000000003 L 808.74 1219.9700000000003 C 818.58 1219.9700000000003 823.78 1215.4000000000003 823.78 1207.6700000000003 Z" stroke-linecap="round" />
</g>
		<g transform="matrix(1 0 0 1 -109.59 215.41)"  >
<path style="stroke: none; stroke-width: 1; stroke-dasharray: none; stroke-linecap: butt; stroke-dashoffset: 0; stroke-linejoin: miter; stroke-miterlimit: 4; fill: rgb(160,160,164); fill-rule: nonzero; opacity: 1;" vector-effect="non-scaling-stroke"  transform=" translate(-890.4, -1215.41)" d="M 904.36 1240 L 893.12 1224.19 C 891.85 1224.3300000000002 890.59 1224.4 889.18 1224.4 L 875.9699999999999 1224.4 L 875.9699999999999 1240 L 870.7699999999999 1240 L 870.7699999999999 1190.82 L 889.1799999999998 1190.82 C 901.6899999999998 1190.82 909.2699999999999 1197.1399999999999 909.2699999999999 1207.6799999999998 C 909.2699999999999 1215.4099999999999 905.1899999999998 1220.82 898.0299999999999 1223.1399999999999 L 910.0399999999998 1239.9999999999998 L 904.3499999999998 1239.9999999999998 Z M 904.08 1207.68 C 904.08 1199.8100000000002 898.88 1195.3100000000002 889.0400000000001 1195.3100000000002 L 875.97 1195.3100000000002 L 875.97 1219.9700000000003 L 889.0400000000001 1219.9700000000003 C 898.8800000000001 1219.9700000000003 904.08 1215.4000000000003 904.08 1207.6700000000003 Z" stroke-linecap="round" />
</g>
		<g transform="matrix(1 0 0 1 -31.54 215.41)"  >
<path style="stroke: none; stroke-width: 1; stroke-dasharray: none; stroke-linecap: butt; stroke-dashoffset: 0; stroke-linejoin: miter; stroke-miterlimit: 4; fill: rgb(160,160,164); fill-rule: nonzero; opacity: 1;" vector-effect="non-scaling-stroke"  transform=" translate(-968.46, -1215.41)" d="M 985.85 1235.5 L 985.85 1240 L 951.07 1240 L 951.07 1190.82 L 984.8000000000001 1190.82 L 984.8000000000001 1195.32 L 956.2700000000001 1195.32 L 956.2700000000001 1212.81 L 981.7 1212.81 L 981.7 1217.24 L 956.2700000000001 1217.24 L 956.2700000000001 1235.51 L 985.8500000000001 1235.51 Z" stroke-linecap="round" />
</g>
		<g transform="matrix(1 0 0 1 46.76 215.4)"  >
<path style="stroke: none; stroke-width: 1; stroke-dasharray: none; stroke-linecap: butt; stroke-dashoffset: 0; stroke-linejoin: miter; stroke-miterlimit: 4; fill: rgb(160,160,164); fill-rule: nonzero; opacity: 1;" vector-effect="non-scaling-stroke"  transform=" translate(-1046.76, -1215.4)" d="M 1044.15 1195.31 L 1026.8700000000001 1195.31 L 1026.8700000000001 1190.81 L 1066.64 1190.81 L 1066.64 1195.31 L 1049.3600000000001 1195.31 L 1049.3600000000001 1240 L 1044.16 1240 L 1044.16 1195.31 Z" stroke-linecap="round" />
</g>
		<g transform="matrix(1 0 0 1 125.05 215.41)"  >
<path style="stroke: none; stroke-width: 1; stroke-dasharray: none; stroke-linecap: butt; stroke-dashoffset: 0; stroke-linejoin: miter; stroke-miterlimit: 4; fill: rgb(160,160,164); fill-rule: nonzero; opacity: 1;" vector-effect="non-scaling-stroke"  transform=" translate(-1125.04, -1215.41)" d="M 1142.43 1235.5 L 1142.43 1240 L 1107.65 1240 L 1107.65 1190.82 L 1141.38 1190.82 L 1141.38 1195.32 L 1112.8500000000001 1195.32 L 1112.8500000000001 1212.81 L 1138.2800000000002 1212.81 L 1138.2800000000002 1217.24 L 1112.8500000000001 1217.24 L 1112.8500000000001 1235.51 L 1142.43 1235.51 Z" stroke-linecap="round" />
</g>
		<g transform="matrix(1 0 0 1 203.1 215.41)"  >
<path style="stroke: none; stroke-width: 1; stroke-dasharray: none; stroke-linecap: butt; stroke-dashoffset: 0; stroke-linejoin: miter; stroke-miterlimit: 4; fill: rgb(160,160,164); fill-rule: nonzero; opacity: 1;" vector-effect="non-scaling-stroke"  transform=" translate(-1203.09, -1215.41)" d="M 1217.04 1240 L 1205.8 1224.19 C 1204.54 1224.3300000000002 1203.27 1224.4 1201.87 1224.4 L 1188.6599999999999 1224.4 L 1188.6599999999999 1240 L 1183.4599999999998 1240 L 1183.4599999999998 1190.82 L 1201.87 1190.82 C 1214.3799999999999 1190.82 1221.9599999999998 1197.1399999999999 1221.9599999999998 1207.6799999999998 C 1221.9599999999998 1215.4099999999999 1217.8799999999999 1220.82 1210.7199999999998 1223.1399999999999 L 1222.7299999999998 1239.9999999999998 L 1217.0399999999997 1239.9999999999998 Z M 1216.76 1207.68 C 1216.76 1199.8100000000002 1211.56 1195.3100000000002 1201.72 1195.3100000000002 L 1188.65 1195.3100000000002 L 1188.65 1219.9700000000003 L 1201.72 1219.9700000000003 C 1211.56 1219.9700000000003 1216.76 1215.4000000000003 1216.76 1207.6700000000003 Z" stroke-linecap="round" />
</g>
		<g transform="matrix(1 0 0 1 266.36 215.41)"  >
<path style="stroke: none; stroke-width: 1; stroke-dasharray: none; stroke-linecap: butt; stroke-dashoffset: 0; stroke-linejoin: miter; stroke-miterlimit: 4; fill: rgb(160,160,164); fill-rule: nonzero; opacity: 1;" vector-effect="non-scaling-stroke"  transform=" translate(-1266.35, -1215.41)" d="M 1263.75 1190.82 L 1268.95 1190.82 L 1268.95 1240 L 1263.75 1240 L 1263.75 1190.82 Z" stroke-linecap="round" />
</g>
		<g transform="matrix(1 0 0 1 335.02 215.41)"  >
<path style="stroke: none; stroke-width: 1; stroke-dasharray: none; stroke-linecap: butt; stroke-dashoffset: 0; stroke-linejoin: miter; stroke-miterlimit: 4; fill: rgb(160,160,164); fill-rule: nonzero; opacity: 1;" vector-effect="non-scaling-stroke"  transform=" translate(-1335.01, -1215.41)" d="M 1348.68 1226.86 L 1321.28 1226.86 L 1315.3799999999999 1240 L 1309.9699999999998 1240 L 1332.4499999999998 1190.82 L 1337.58 1190.82 L 1360.06 1240 L 1354.58 1240 L 1348.6799999999998 1226.86 Z M 1346.78 1222.65 L 1334.98 1196.23 L 1323.18 1222.65 L 1346.79 1222.65 Z" stroke-linecap="round" />
</g>
		<g transform="matrix(1 0 0 1 -565.5 -47.82)"  >
<path style="stroke: none; stroke-width: 1; stroke-dasharray: none; stroke-linecap: butt; stroke-dashoffset: 0; stroke-linejoin: miter; stroke-miterlimit: 4; fill: rgb(197,17,32); fill-rule: nonzero; opacity: 1;" vector-effect="non-scaling-stroke"  transform=" translate(-434.49, -952.18)" d="M 352.06 760.47 L 516.9300000000001 760.47 L 516.9300000000001 830.34 L 470.49000000000007 830.34 L 470.49000000000007 1143.89 L 399.34000000000003 1143.89 L 399.34000000000003 830.3400000000001 L 352.05 830.3400000000001 L 352.05 760.4700000000001 Z" stroke-linecap="round" />
</g>
		<g transform="matrix(1 0 0 1 -396.53 -47.81)"  >
<path style="stroke: none; stroke-width: 1; stroke-dasharray: none; stroke-linecap: butt; stroke-dashoffset: 0; stroke-linejoin: miter; stroke-miterlimit: 4; fill: rgb(197,17,32); fill-rule: nonzero; opacity: 1;" vector-effect="non-scaling-stroke"  transform=" translate(-603.46, -952.19)" d="M 672.27 830.34 L 605.81 830.34 L 605.81 915.12 L 672.27 915.12 L 672.27 969.23 L 605.81 969.23 L 605.81 1073.6100000000001 L 672.27 1073.6100000000001 L 672.27 1143.9 L 534.66 1143.9 L 534.66 760.48 L 672.27 760.48 L 672.27 830.35 Z" stroke-linecap="round" />
</g>
		<g transform="matrix(1 0 0 1 -216.68 -47.81)"  >
<path style="stroke: none; stroke-width: 1; stroke-dasharray: none; stroke-linecap: butt; stroke-dashoffset: 0; stroke-linejoin: miter; stroke-miterlimit: 4; fill: rgb(197,17,32); fill-rule: nonzero; opacity: 1;" vector-effect="non-scaling-stroke"  transform=" translate(-783.31, -952.19)" d="M 722.39 945.37 L 722.39 938.98 C 698.96 925.77 702.37 907.88 698.53 863.15 L 690.01 760.48 L 761.16 760.48 L 770.53 921.09 L 795.67 921.09 L 805.4699999999999 760.48 L 876.6199999999999 760.48 L 868.0999999999999 863.15 C 864.2699999999999 907.88 867.67 925.78 844.2399999999999 938.98 L 844.2399999999999 945.37 C 868.0999999999999 954.74 865.5399999999998 984.56 868.0999999999999 1020.78 L 876.6199999999999 1143.9 L 805.4699999999999 1143.9 L 795.67 972.21 L 770.53 972.21 L 761.16 1143.9 L 690.01 1143.9 L 698.53 1020.7800000000001 C 701.0899999999999 984.57 698.53 954.7500000000001 722.39 945.3700000000001 Z" stroke-linecap="round" />
</g>
		<g transform="matrix(1 0 0 1 -18.1 -47.82)"  >
<path style="stroke: none; stroke-width: 1; stroke-dasharray: none; stroke-linecap: butt; stroke-dashoffset: 0; stroke-linejoin: miter; stroke-miterlimit: 4; fill: rgb(197,17,32); fill-rule: nonzero; opacity: 1;" vector-effect="non-scaling-stroke"  transform=" translate(-981.89, -952.18)" d="M 894.35 1059.54 L 894.35 843.97 C 894.35 793.27 913.09 760.47 961.6600000000001 760.47 L 1002.9800000000001 760.47 C 1052.4 760.47 1069.44 793.7 1069.44 849.9300000000001 L 1069.44 911.7 L 998.72 915.96 L 998.2900000000001 830.33 L 965.0600000000001 830.33 L 965.0600000000001 1073.5900000000001 L 998.2900000000001 1073.5900000000001 L 998.2900000000001 989.2400000000001 L 1069.44 993.5000000000001 L 1069.44 1054.42 C 1069.44 1110.65 1052.4 1143.88 1002.1300000000001 1143.88 L 962.0800000000002 1143.88 C 913.0900000000001 1143.88 894.3400000000001 1111.0800000000002 894.3400000000001 1059.5300000000002 Z" stroke-linecap="round" />
</g>
		<g transform="matrix(1 0 0 1 367.56 -47.82)"  >
<path style="stroke: none; stroke-width: 1; stroke-dasharray: none; stroke-linecap: butt; stroke-dashoffset: 0; stroke-linejoin: miter; stroke-miterlimit: 4; fill: rgb(197,17,32); fill-rule: nonzero; opacity: 1;" vector-effect="non-scaling-stroke"  transform=" translate(-1367.56, -952.18)" d="M 1280.02 1059.54 L 1280.02 843.97 C 1280.02 793.27 1298.76 760.47 1347.33 760.47 L 1388.6499999999999 760.47 C 1438.07 760.47 1455.11 793.7 1455.11 849.9300000000001 L 1455.11 911.7 L 1384.3899999999999 915.96 L 1383.9599999999998 830.33 L 1350.7299999999998 830.33 L 1350.7299999999998 1073.5900000000001 L 1383.9599999999998 1073.5900000000001 L 1383.9599999999998 989.2400000000001 L 1455.11 993.5000000000001 L 1455.11 1054.42 C 1455.11 1110.65 1438.07 1143.88 1387.8 1143.88 L 1347.75 1143.88 C 1298.76 1143.88 1280.01 1111.0800000000002 1280.01 1059.5300000000002 Z" stroke-linecap="round" />
</g>
		<g transform="matrix(1 0 0 1 174.74 -48.31)"  >
<path style="stroke: none; stroke-width: 1; stroke-dasharray: none; stroke-linecap: butt; stroke-dashoffset: 0; stroke-linejoin: miter; stroke-miterlimit: 4; fill: rgb(197,17,32); fill-rule: nonzero; opacity: 1;" vector-effect="non-scaling-stroke"  transform=" translate(-1174.74, -951.69)" d="M 1262.28 856.24 L 1262.28 846.0600000000001 C 1262.28 792.8100000000001 1244.81 760 1195.4 760 L 1154.93 760 C 1105.93 760 1087.19 791.95 1087.19 845.63 L 1087.19 856.47 L 1104.0900000000001 855.0600000000001 L 1104.0900000000001 926.21 L 1087.19 927.2 L 1087.19 969.48 L 1104.0900000000001 970.51 L 1104.0900000000001 1041.65 L 1087.19 1040.24 L 1087.19 1057.76 C 1087.19 1111.44 1105.93 1143.3899999999999 1154.93 1143.3899999999999 L 1195.4 1143.3899999999999 C 1244.8100000000002 1143.3899999999999 1262.2800000000002 1111.0099999999998 1262.2800000000002 1057.33 L 1262.2800000000002 1040.47 L 1245.3700000000001 1041.64 L 1245.3700000000001 970.5000000000001 L 1262.2800000000002 969.5400000000001 L 1262.2800000000002 927.1200000000001 L 1245.3700000000001 926.2000000000002 L 1245.3700000000001 855.0500000000002 L 1262.2800000000002 856.2200000000001 Z M 1174.72 1050.77 C 1156.44 1050.77 1141.65 1035.96 1141.65 1017.6899999999999 C 1141.65 999.4199999999998 1156.45 984.6299999999999 1174.72 984.6299999999999 C 1192.99 984.6299999999999 1207.81 999.4299999999998 1207.81 1017.6899999999998 C 1207.81 1035.9499999999998 1193 1050.7699999999998 1174.72 1050.7699999999998 Z M 1174.72 918.79 C 1156.44 918.79 1141.65 903.98 1141.65 885.74 C 1141.65 867.5 1156.45 852.64 1174.72 852.64 C 1192.99 852.64 1207.81 867.48 1207.81 885.74 C 1207.81 904 1193 918.79 1174.72 918.79 Z" stroke-linecap="round" />
</g>
		<g transform="matrix(1 0 0 1 560.4 -48.31)"  >
<path style="stroke: none; stroke-width: 1; stroke-dasharray: none; stroke-linecap: butt; stroke-dashoffset: 0; stroke-linejoin: miter; stroke-miterlimit: 4; fill: rgb(197,17,32); fill-rule: nonzero; opacity: 1;" vector-effect="non-scaling-stroke"  transform=" translate(-1560.39, -951.69)" d="M 1647.94 856.24 L 1647.94 846.0600000000001 C 1647.94 792.8100000000001 1630.47 760 1581.06 760 L 1540.59 760 C 1491.59 760 1472.85 791.95 1472.85 845.63 L 1472.85 856.47 L 1489.75 855.0600000000001 L 1489.75 926.21 L 1472.85 927.2 L 1472.85 969.48 L 1489.75 970.51 L 1489.75 1041.65 L 1472.85 1040.24 L 1472.85 1057.76 C 1472.85 1111.44 1491.59 1143.3899999999999 1540.59 1143.3899999999999 L 1581.06 1143.3899999999999 C 1630.47 1143.3899999999999 1647.94 1111.0099999999998 1647.94 1057.33 L 1647.94 1040.47 L 1631.03 1041.64 L 1631.03 970.5000000000001 L 1647.94 969.5400000000001 L 1647.94 927.1200000000001 L 1631.03 926.2000000000002 L 1631.03 855.0500000000002 L 1647.94 856.2200000000001 Z M 1560.39 1050.77 C 1542.1100000000001 1050.77 1527.3200000000002 1035.96 1527.3200000000002 1017.6899999999999 C 1527.3200000000002 999.4199999999998 1542.1200000000001 984.6299999999999 1560.39 984.6299999999999 C 1578.66 984.6299999999999 1593.48 999.4299999999998 1593.48 1017.6899999999998 C 1593.48 1035.9499999999998 1578.67 1050.7699999999998 1560.39 1050.7699999999998 Z M 1560.39 918.79 C 1542.1100000000001 918.79 1527.3200000000002 903.98 1527.3200000000002 885.74 C 1527.3200000000002 867.5 1542.1200000000001 852.64 1560.39 852.64 C 1578.66 852.64 1593.48 867.48 1593.48 885.74 C 1593.48 904 1578.67 918.79 1560.39 918.79 Z" stroke-linecap="round" />
</g>
</g>
</g>
</svg>