<svg xmlns="http://www.w3.org/2000/svg" xmlns:xlink="http://www.w3.org/1999/xlink" viewBox="820 1008 620 240" preserveAspectRatio="xMidYMid meet" version="1.0"><path fill="#ffffff" d="M 965.382812 1212.351562 L 965.382812 1221.039062 L 976.824219 1221.039062 L 976.824219 1223.066406 L 965.382812 1223.066406 L 965.382812 1232.453125 L 963.046875 1232.453125 L 963.046875 1210.332031 L 978.214844 1210.332031 L 978.214844 1212.355469 L 965.382812 1212.355469 Z M 965.382812 1212.351562 " fill-opacity="1" fill-rule="nonzero"/><path fill="#ffffff" d="M 1012.308594 1230.429688 L 1012.308594 1232.453125 L 996.664062 1232.453125 L 996.664062 1210.332031 L 1011.835938 1210.332031 L 1011.835938 1212.355469 L 999.003906 1212.355469 L 999.003906 1220.222656 L 1010.441406 1220.222656 L 1010.441406 1222.214844 L 999.003906 1222.214844 L 999.003906 1230.433594 L 1012.308594 1230.433594 Z M 1012.308594 1230.429688 " fill-opacity="1" fill-rule="nonzero"/><path fill="#ffffff" d="M 1045.863281 1232.453125 L 1040.804688 1225.339844 C 1040.238281 1225.402344 1039.667969 1225.433594 1039.039062 1225.433594 L 1033.097656 1225.433594 L 1033.097656 1232.453125 L 1030.757812 1232.453125 L 1030.757812 1210.332031 L 1039.039062 1210.332031 C 1044.664062 1210.332031 1048.074219 1213.175781 1048.074219 1217.914062 C 1048.074219 1221.390625 1046.238281 1223.824219 1043.019531 1224.867188 L 1048.421875 1232.453125 Z M 1045.734375 1217.914062 C 1045.734375 1214.375 1043.398438 1212.351562 1038.972656 1212.351562 L 1033.09375 1212.351562 L 1033.09375 1223.441406 L 1038.972656 1223.441406 C 1043.398438 1223.441406 1045.734375 1221.386719 1045.734375 1217.910156 Z M 1045.734375 1217.914062 " fill-opacity="1" fill-rule="nonzero"/><path fill="#ffffff" d="M 1081.980469 1232.453125 L 1076.925781 1225.339844 C 1076.355469 1225.402344 1075.789062 1225.433594 1075.152344 1225.433594 L 1069.210938 1225.433594 L 1069.210938 1232.453125 L 1066.871094 1232.453125 L 1066.871094 1210.332031 L 1075.152344 1210.332031 C 1080.78125 1210.332031 1084.191406 1213.175781 1084.191406 1217.914062 C 1084.191406 1221.390625 1082.355469 1223.824219 1079.132812 1224.867188 L 1084.535156 1232.453125 L 1081.976562 1232.453125 Z M 1081.855469 1217.914062 C 1081.855469 1214.375 1079.515625 1212.351562 1075.089844 1212.351562 L 1069.210938 1212.351562 L 1069.210938 1223.441406 L 1075.089844 1223.441406 C 1079.515625 1223.441406 1081.855469 1221.386719 1081.855469 1217.910156 Z M 1081.855469 1217.914062 " fill-opacity="1" fill-rule="nonzero"/><path fill="#ffffff" d="M 1118.636719 1230.429688 L 1118.636719 1232.453125 L 1102.992188 1232.453125 L 1102.992188 1210.332031 L 1118.164062 1210.332031 L 1118.164062 1212.355469 L 1105.332031 1212.355469 L 1105.332031 1220.222656 L 1116.769531 1220.222656 L 1116.769531 1222.214844 L 1105.332031 1222.214844 L 1105.332031 1230.433594 L 1118.636719 1230.433594 Z M 1118.636719 1230.429688 " fill-opacity="1" fill-rule="nonzero"/><path fill="#ffffff" d="M 1144.859375 1212.351562 L 1137.085938 1212.351562 L 1137.085938 1210.328125 L 1154.976562 1210.328125 L 1154.976562 1212.351562 L 1147.203125 1212.351562 L 1147.203125 1232.453125 L 1144.863281 1232.453125 L 1144.863281 1212.351562 Z M 1144.859375 1212.351562 " fill-opacity="1" fill-rule="nonzero"/><path fill="#ffffff" d="M 1189.066406 1230.429688 L 1189.066406 1232.453125 L 1173.421875 1232.453125 L 1173.421875 1210.332031 L 1188.59375 1210.332031 L 1188.59375 1212.355469 L 1175.761719 1212.355469 L 1175.761719 1220.222656 L 1187.199219 1220.222656 L 1187.199219 1222.214844 L 1175.761719 1222.214844 L 1175.761719 1230.433594 L 1189.066406 1230.433594 Z M 1189.066406 1230.429688 " fill-opacity="1" fill-rule="nonzero"/><path fill="#ffffff" d="M 1222.625 1232.453125 L 1217.570312 1225.339844 C 1217.003906 1225.402344 1216.429688 1225.433594 1215.800781 1225.433594 L 1209.859375 1225.433594 L 1209.859375 1232.453125 L 1207.519531 1232.453125 L 1207.519531 1210.332031 L 1215.800781 1210.332031 C 1221.429688 1210.332031 1224.835938 1213.175781 1224.835938 1217.914062 C 1224.835938 1221.390625 1223.003906 1223.824219 1219.78125 1224.867188 L 1225.183594 1232.453125 Z M 1222.5 1217.914062 C 1222.5 1214.375 1220.160156 1212.351562 1215.734375 1212.351562 L 1209.855469 1212.351562 L 1209.855469 1223.441406 L 1215.734375 1223.441406 C 1220.160156 1223.441406 1222.5 1221.386719 1222.5 1217.910156 Z M 1222.5 1217.914062 " fill-opacity="1" fill-rule="nonzero"/><path fill="#ffffff" d="M 1243.632812 1210.332031 L 1245.972656 1210.332031 L 1245.972656 1232.453125 L 1243.632812 1232.453125 Z M 1243.632812 1210.332031 " fill-opacity="1" fill-rule="nonzero"/><path fill="#ffffff" d="M 1281.835938 1226.542969 L 1269.511719 1226.542969 L 1266.859375 1232.453125 L 1264.425781 1232.453125 L 1274.535156 1210.332031 L 1276.84375 1210.332031 L 1286.953125 1232.453125 L 1284.488281 1232.453125 Z M 1280.980469 1224.648438 L 1275.675781 1212.765625 L 1270.367188 1224.648438 L 1280.984375 1224.648438 Z M 1280.980469 1224.648438 " fill-opacity="1" fill-rule="nonzero"/><path fill="#ffffff" d="M 833.554688 1016.757812 L 907.714844 1016.757812 L 907.714844 1048.1875 L 886.828125 1048.1875 L 886.828125 1189.222656 L 854.824219 1189.222656 L 854.824219 1048.1875 L 833.550781 1048.1875 L 833.550781 1016.757812 Z M 833.554688 1016.757812 " fill-opacity="1" fill-rule="nonzero"/><path fill="#ffffff" d="M 977.585938 1048.1875 L 947.691406 1048.1875 L 947.691406 1086.320312 L 977.585938 1086.320312 L 977.585938 1110.660156 L 947.691406 1110.660156 L 947.691406 1157.609375 L 977.585938 1157.609375 L 977.585938 1189.226562 L 915.691406 1189.226562 L 915.691406 1016.765625 L 977.585938 1016.765625 L 977.585938 1048.191406 Z M 977.585938 1048.1875 " fill-opacity="1" fill-rule="nonzero"/><path fill="#ffffff" d="M 1000.132812 1099.929688 L 1000.132812 1097.054688 C 989.59375 1091.113281 991.125 1083.066406 989.398438 1062.945312 L 985.566406 1016.765625 L 1017.570312 1016.765625 L 1021.785156 1089.007812 L 1033.09375 1089.007812 L 1037.5 1016.765625 L 1069.503906 1016.765625 L 1065.671875 1062.945312 C 1063.949219 1083.066406 1065.476562 1091.117188 1054.9375 1097.054688 L 1054.9375 1099.929688 C 1065.671875 1104.140625 1064.519531 1117.554688 1065.671875 1133.847656 L 1069.503906 1189.226562 L 1037.5 1189.226562 L 1033.09375 1112 L 1021.785156 1112 L 1017.570312 1189.226562 L 985.566406 1189.226562 L 989.398438 1133.847656 C 990.550781 1117.558594 989.398438 1104.148438 1000.132812 1099.929688 Z M 1000.132812 1099.929688 " fill-opacity="1" fill-rule="nonzero"/><path fill="#ffffff" d="M 1077.480469 1151.28125 L 1077.480469 1054.316406 C 1077.480469 1031.511719 1085.90625 1016.757812 1107.753906 1016.757812 L 1126.339844 1016.757812 C 1148.570312 1016.757812 1156.234375 1031.707031 1156.234375 1057 L 1156.234375 1084.78125 L 1124.425781 1086.699219 L 1124.230469 1048.183594 L 1109.285156 1048.183594 L 1109.285156 1157.601562 L 1124.230469 1157.601562 L 1124.230469 1119.660156 L 1156.234375 1121.578125 L 1156.234375 1148.980469 C 1156.234375 1174.269531 1148.570312 1189.21875 1125.957031 1189.21875 L 1107.945312 1189.21875 C 1085.90625 1189.21875 1077.472656 1174.464844 1077.472656 1151.277344 Z M 1077.480469 1151.28125 " fill-opacity="1" fill-rule="nonzero"/><path fill="#ffffff" d="M 1250.953125 1151.28125 L 1250.953125 1054.316406 C 1250.953125 1031.511719 1259.382812 1016.757812 1281.230469 1016.757812 L 1299.816406 1016.757812 C 1322.042969 1016.757812 1329.707031 1031.707031 1329.707031 1057 L 1329.707031 1084.78125 L 1297.898438 1086.699219 L 1297.707031 1048.183594 L 1282.757812 1048.183594 L 1282.757812 1157.601562 L 1297.707031 1157.601562 L 1297.707031 1119.660156 L 1329.707031 1121.578125 L 1329.707031 1148.980469 C 1329.707031 1174.269531 1322.042969 1189.21875 1299.433594 1189.21875 L 1281.417969 1189.21875 C 1259.382812 1189.21875 1250.949219 1174.464844 1250.949219 1151.277344 Z M 1250.953125 1151.28125 " fill-opacity="1" fill-rule="nonzero"/><path fill="#ffffff" d="M 1242.972656 1059.835938 L 1242.972656 1055.257812 C 1242.972656 1031.304688 1235.117188 1016.546875 1212.890625 1016.546875 L 1194.6875 1016.546875 C 1172.648438 1016.546875 1164.21875 1030.917969 1164.21875 1055.066406 L 1164.21875 1059.941406 L 1171.820312 1059.304688 L 1171.820312 1091.308594 L 1164.21875 1091.753906 L 1164.21875 1110.773438 L 1171.820312 1111.234375 L 1171.820312 1143.234375 L 1164.21875 1142.601562 L 1164.21875 1150.480469 C 1164.21875 1174.625 1172.648438 1188.996094 1194.6875 1188.996094 L 1212.890625 1188.996094 C 1235.117188 1188.996094 1242.972656 1174.433594 1242.972656 1150.289062 L 1242.972656 1142.703125 L 1235.367188 1143.230469 L 1235.367188 1111.230469 L 1242.972656 1110.800781 L 1242.972656 1091.71875 L 1235.367188 1091.304688 L 1235.367188 1059.300781 L 1242.972656 1059.828125 Z M 1203.589844 1147.335938 C 1195.367188 1147.335938 1188.714844 1140.675781 1188.714844 1132.457031 C 1188.714844 1124.238281 1195.371094 1117.585938 1203.589844 1117.585938 C 1211.808594 1117.585938 1218.472656 1124.242188 1218.472656 1132.457031 C 1218.472656 1140.671875 1211.8125 1147.335938 1203.589844 1147.335938 Z M 1203.589844 1087.972656 C 1195.367188 1087.972656 1188.714844 1081.308594 1188.714844 1073.105469 C 1188.714844 1064.902344 1195.371094 1058.21875 1203.589844 1058.21875 C 1211.808594 1058.21875 1218.472656 1064.894531 1218.472656 1073.105469 C 1218.472656 1081.320312 1211.8125 1087.972656 1203.589844 1087.972656 Z M 1203.589844 1087.972656 " fill-opacity="1" fill-rule="nonzero"/><path fill="#ffffff" d="M 1416.445312 1059.835938 L 1416.445312 1055.257812 C 1416.445312 1031.304688 1408.585938 1016.546875 1386.359375 1016.546875 L 1368.15625 1016.546875 C 1346.117188 1016.546875 1337.6875 1030.917969 1337.6875 1055.066406 L 1337.6875 1059.941406 L 1345.289062 1059.304688 L 1345.289062 1091.308594 L 1337.6875 1091.753906 L 1337.6875 1110.773438 L 1345.289062 1111.234375 L 1345.289062 1143.234375 L 1337.6875 1142.601562 L 1337.6875 1150.480469 C 1337.6875 1174.625 1346.117188 1188.996094 1368.15625 1188.996094 L 1386.359375 1188.996094 C 1408.585938 1188.996094 1416.445312 1174.433594 1416.445312 1150.289062 L 1416.445312 1142.703125 L 1408.835938 1143.230469 L 1408.835938 1111.230469 L 1416.445312 1110.800781 L 1416.445312 1091.71875 L 1408.835938 1091.304688 L 1408.835938 1059.300781 L 1416.445312 1059.828125 Z M 1377.0625 1147.335938 C 1368.839844 1147.335938 1362.1875 1140.675781 1362.1875 1132.457031 C 1362.1875 1124.238281 1368.84375 1117.585938 1377.0625 1117.585938 C 1385.28125 1117.585938 1391.949219 1124.242188 1391.949219 1132.457031 C 1391.949219 1140.671875 1385.285156 1147.335938 1377.0625 1147.335938 Z M 1377.0625 1087.972656 C 1368.839844 1087.972656 1362.1875 1081.308594 1362.1875 1073.105469 C 1362.1875 1064.902344 1368.84375 1058.21875 1377.0625 1058.21875 C 1385.28125 1058.21875 1391.949219 1064.894531 1391.949219 1073.105469 C 1391.949219 1081.320312 1385.285156 1087.972656 1377.0625 1087.972656 Z M 1377.0625 1087.972656 " fill-opacity="1" fill-rule="nonzero"/></svg>