<?xml version="1.0" encoding="UTF-8"?>
<svg id="TEXCOCO" xmlns="http://www.w3.org/2000/svg" viewBox="0 0 2000 2000">
  <defs>
    <style>
      .cls-1 {
        fill: #fff;
      }

      .cls-2 {
        fill: #c51120;
      }
    </style>
  </defs>
  <rect class="cls-2" x="2.01" y="2.31" width="1994.99" height="2000.69"/>
  <g>
    <path class="cls-1" d="M980.27,867.34v-14.15c0-74-24.28-119.58-92.94-119.58h-56.24c-68.08,0-94.12,44.39-94.12,118.99v15.07l23.49-1.95v98.86l-23.49,1.38v58.75l23.49,1.44v98.85l-23.49-1.95v24.35c0,74.59,26.04,118.99,94.12,118.99h56.24c68.66,0,92.94-44.99,92.94-119.58v-23.43l-23.5,1.62v-98.85l23.5-1.34v-58.94l-23.5-1.28v-98.86l23.5,1.62ZM858.61,1137.65c-25.4,0-45.96-20.58-45.96-45.97s20.56-45.94,45.96-45.94,45.98,20.56,45.98,45.94-20.58,45.97-45.98,45.97ZM858.61,954.26c-25.4,0-45.96-20.57-45.96-45.92s20.56-45.99,45.96-45.99,45.98,20.62,45.98,45.99-20.58,45.92-45.98,45.92Z"/>
    <path class="cls-1" d="M1263.02,867.34v-14.15c0-74-24.28-119.58-92.94-119.58h-56.24c-68.08,0-94.12,44.39-94.12,118.99v15.07l23.49-1.95v98.86l-23.49,1.38v58.75l23.49,1.44v98.85l-23.49-1.95v24.35c0,74.59,26.04,118.99,94.12,118.99h56.24c68.66,0,92.94-44.99,92.94-119.58v-23.43l-23.5,1.62v-98.85l23.5-1.34v-58.94l-23.5-1.28v-98.86l23.5,1.62ZM1141.36,1137.65c-25.4,0-45.96-20.58-45.96-45.97s20.56-45.94,45.96-45.94,45.98,20.56,45.98,45.94-20.58,45.97-45.98,45.97ZM1141.36,954.26c-25.4,0-45.96-20.57-45.96-45.92s20.56-45.99,45.96-45.99,45.98,20.62,45.98,45.99-20.58,45.92-45.98,45.92Z"/>
  </g>
</svg>